<svg xmlns="http://www.w3.org/2000/svg" width="131" height="132" viewBox="0 0 131 132" version="1.1"><path d="M 49 13.230 C 49 26.460, 49 26.460, 39.493 16.993 C 29.986 7.525, 29.986 7.525, 18.256 19.255 C 6.526 30.984, 6.526 30.984, 15.492 39.992 C 24.458 49, 24.458 49, 12.229 49 C 0 49, 0 49, 0 66 C 0 83, 0 83, 12.228 83 C 24.456 83, 24.456 83, 15.992 91.508 C 7.527 100.017, 7.527 100.017, 19.256 111.746 C 30.986 123.475, 30.986 123.475, 40.493 114.007 C 50 104.540, 50 104.540, 50 118.270 C 50 132, 50 132, 65.500 132 C 81 132, 81 132, 81 117.268 C 81 102.536, 81 102.536, 91.267 112.768 C 101.534 123, 101.534 123, 112.269 112.231 C 123.005 101.463, 123.005 101.463, 113.977 92.481 C 104.949 83.500, 104.949 83.500, 118.225 83 C 131.500 82.500, 131.500 82.500, 131.774 65.500 C 132.049 48.500, 132.049 48.500, 118.774 48.796 C 105.500 49.092, 105.500 49.092, 114.748 39.779 C 123.997 30.466, 123.997 30.466, 112.165 18.665 C 100.334 6.864, 100.334 6.864, 91.699 16.182 C 83.065 25.500, 83.065 25.500, 83.032 12.750 C 83 0, 83 0, 66 0 C 49 0, 49 0, 49 13.230 M 0.411 66 C 0.411 75.625, 0.561 79.563, 0.745 74.750 C 0.928 69.937, 0.928 62.062, 0.745 57.250 C 0.561 52.438, 0.411 56.375, 0.411 66" stroke="none" fill="#1c9ca4" fill-rule="evenodd"/></svg>